<?xml version="1.0" encoding="UTF-8" standalone="no"?>
<!DOCTYPE svg PUBLIC "-//W3C//DTD SVG 1.1//EN"
 "http://www.w3.org/Graphics/SVG/1.1/DTD/svg11.dtd">
<!-- Generated by graphviz version 2.40.1 (20161225.0304)
 -->
<!-- Title: dependencies Pages: 1 -->
<svg width="4178pt" height="349pt"
 viewBox="0.00 0.00 4178.00 349.00" xmlns="http://www.w3.org/2000/svg" xmlns:xlink="http://www.w3.org/1999/xlink">
<g id="graph0" class="graph" transform="scale(1 1) rotate(0) translate(4 345)">
<title>dependencies</title>
<polygon fill="#ffffff" stroke="transparent" points="-4,4 -4,-345 4174,-345 4174,4 -4,4"/>
<text text-anchor="start" x="2064.0091" y="-42.4" font-family="sans-serif" font-weight="bold" font-size="14.00" fill="#000000">Legend</text>
<polygon fill="#ffffb3" stroke="transparent" points="1851,-10 1851,-30 1871,-30 1871,-10 1851,-10"/>
<text text-anchor="start" x="1874.629" y="-15.4" font-family="sans-serif" font-size="14.00" fill="#000000"> &#160;Declarations</text>
<polygon fill="#8dd3c7" stroke="transparent" points="1964,-10 1964,-30 1984,-30 1984,-10 1964,-10"/>
<text text-anchor="start" x="1987.7251" y="-15.4" font-family="sans-serif" font-size="14.00" fill="#000000"> &#160;Module</text>
<polygon fill="#80b1d3" stroke="transparent" points="2050,-10 2050,-30 2070,-30 2070,-10 2050,-10"/>
<text text-anchor="start" x="2073.7812" y="-15.4" font-family="sans-serif" font-size="14.00" fill="#000000"> &#160;Bootstrap</text>
<polygon fill="#fdb462" stroke="transparent" points="2147,-10 2147,-30 2167,-30 2167,-10 2147,-10"/>
<text text-anchor="start" x="2170.6732" y="-15.4" font-family="sans-serif" font-size="14.00" fill="#000000"> &#160;Providers</text>
<polygon fill="#fb8072" stroke="transparent" points="2243,-10 2243,-30 2263,-30 2263,-10 2243,-10"/>
<text text-anchor="start" x="2266.7258" y="-15.4" font-family="sans-serif" font-size="14.00" fill="#000000"> &#160;Exports</text>
<g id="clust1" class="cluster">
<title>cluster_AppModule</title>
<polygon fill="none" stroke="#000000" stroke-dasharray="1,5" points="8,-70 8,-333 4162,-333 4162,-70 8,-70"/>
</g>
<g id="clust2" class="cluster">
<title>cluster_AppModule_declarations</title>
<polygon fill="none" stroke="#000000" points="375,-143 375,-195 4154,-195 4154,-143 375,-143"/>
</g>
<g id="clust3" class="cluster">
<title>cluster_AppModule_AppComponent_providers</title>
<polygon fill="none" stroke="#000000" points="2676,-78 2676,-130 4154,-130 4154,-78 2676,-78"/>
</g>
<g id="clust26" class="cluster">
<title>cluster_AppModule_bootstrap</title>
<polygon fill="none" stroke="#000000" points="1851,-273 1851,-325 1975,-325 1975,-273 1851,-273"/>
</g>
<g id="clust27" class="cluster">
<title>cluster_AppModule_providers</title>
<polygon fill="none" stroke="#000000" points="16,-143 16,-195 367,-195 367,-143 16,-143"/>
</g>
<!-- AppComponent -->
<g id="node1" class="node">
<title>AppComponent</title>
<polygon fill="#ffffb3" stroke="#000000" points="4145.9399,-187 4040.0601,-187 4040.0601,-151 4145.9399,-151 4145.9399,-187"/>
<text text-anchor="middle" x="4093" y="-164.8" font-family="Times,serif" font-size="14.00" fill="#000000">AppComponent</text>
</g>
<!-- AppModule -->
<g id="node22" class="node">
<title>AppModule</title>
<polygon fill="#8dd3c7" stroke="#000000" points="1954.6571,-252 1951.6571,-256 1930.6571,-256 1927.6571,-252 1871.3429,-252 1871.3429,-216 1954.6571,-216 1954.6571,-252"/>
<text text-anchor="middle" x="1913" y="-229.8" font-family="Times,serif" font-size="14.00" fill="#000000">AppModule</text>
</g>
<!-- AppComponent&#45;&gt;AppModule -->
<g id="edge1" class="edge">
<title>AppComponent&#45;&gt;AppModule</title>
<path fill="none" stroke="#000000" d="M4093,-187.1532C4093,-210.7566 4093,-249 4093,-249 4093,-249 1965.084,-249 1965.084,-249"/>
<polygon fill="#000000" stroke="#000000" points="1965.084,-245.5001 1955.084,-249 1965.084,-252.5001 1965.084,-245.5001"/>
</g>
<!-- AppointmentComponent -->
<g id="node2" class="node">
<title>AppointmentComponent</title>
<polygon fill="#ffffb3" stroke="#000000" points="4022.7162,-187 3867.2838,-187 3867.2838,-151 4022.7162,-151 4022.7162,-187"/>
<text text-anchor="middle" x="3945" y="-164.8" font-family="Times,serif" font-size="14.00" fill="#000000">AppointmentComponent</text>
</g>
<!-- AppointmentComponent&#45;&gt;AppModule -->
<g id="edge4" class="edge">
<title>AppointmentComponent&#45;&gt;AppModule</title>
<path fill="none" stroke="#000000" d="M3945,-187.2479C3945,-210.0179 3945,-246 3945,-246 3945,-246 1964.9748,-246 1964.9748,-246"/>
<polygon fill="#000000" stroke="#000000" points="1964.9748,-242.5001 1954.9748,-246 1964.9747,-249.5001 1964.9748,-242.5001"/>
</g>
<!-- BottomSheetComponent -->
<g id="node3" class="node">
<title>BottomSheetComponent</title>
<polygon fill="#ffffb3" stroke="#000000" points="3849.4438,-187 3694.5562,-187 3694.5562,-151 3849.4438,-151 3849.4438,-187"/>
<text text-anchor="middle" x="3772" y="-164.8" font-family="Times,serif" font-size="14.00" fill="#000000">BottomSheetComponent</text>
</g>
<!-- BottomSheetComponent&#45;&gt;AppModule -->
<g id="edge5" class="edge">
<title>BottomSheetComponent&#45;&gt;AppModule</title>
<path fill="none" stroke="#000000" d="M3772,-187.2921C3772,-209.2057 3772,-243 3772,-243 3772,-243 1964.8764,-243 1964.8764,-243"/>
<polygon fill="#000000" stroke="#000000" points="1964.8764,-239.5001 1954.8764,-243 1964.8764,-246.5001 1964.8764,-239.5001"/>
</g>
<!-- CalendarComponent -->
<g id="node4" class="node">
<title>CalendarComponent</title>
<polygon fill="#ffffb3" stroke="#000000" points="3676.8641,-187 3545.1359,-187 3545.1359,-151 3676.8641,-151 3676.8641,-187"/>
<text text-anchor="middle" x="3611" y="-164.8" font-family="Times,serif" font-size="14.00" fill="#000000">CalendarComponent</text>
</g>
<!-- CalendarComponent&#45;&gt;AppModule -->
<g id="edge6" class="edge">
<title>CalendarComponent&#45;&gt;AppModule</title>
<path fill="none" stroke="#000000" d="M3611,-187.2843C3611,-208.3211 3611,-240 3611,-240 3611,-240 1964.9733,-240 1964.9733,-240"/>
<polygon fill="#000000" stroke="#000000" points="1964.9733,-236.5001 1954.9733,-240 1964.9732,-243.5001 1964.9733,-236.5001"/>
</g>
<!-- ContentCardComponent -->
<g id="node5" class="node">
<title>ContentCardComponent</title>
<polygon fill="#ffffb3" stroke="#000000" points="3527.3766,-187 3374.6234,-187 3374.6234,-151 3527.3766,-151 3527.3766,-187"/>
<text text-anchor="middle" x="3451" y="-164.8" font-family="Times,serif" font-size="14.00" fill="#000000">ContentCardComponent</text>
</g>
<!-- ContentCardComponent&#45;&gt;AppModule -->
<g id="edge7" class="edge">
<title>ContentCardComponent&#45;&gt;AppModule</title>
<path fill="none" stroke="#000000" d="M3451,-187.2228C3451,-207.3652 3451,-237 3451,-237 3451,-237 1964.9354,-237 1964.9354,-237"/>
<polygon fill="#000000" stroke="#000000" points="1964.9355,-233.5001 1954.9354,-237 1964.9354,-240.5001 1964.9355,-233.5001"/>
</g>
<!-- DatetimepickerComponent -->
<g id="node6" class="node">
<title>DatetimepickerComponent</title>
<polygon fill="#ffffb3" stroke="#000000" points="3356.626,-187 3189.374,-187 3189.374,-151 3356.626,-151 3356.626,-187"/>
<text text-anchor="middle" x="3273" y="-164.8" font-family="Times,serif" font-size="14.00" fill="#000000">DatetimepickerComponent</text>
</g>
<!-- DatetimepickerComponent&#45;&gt;AppModule -->
<g id="edge8" class="edge">
<title>DatetimepickerComponent&#45;&gt;AppModule</title>
<path fill="none" stroke="#000000" d="M3273,-187.1061C3273,-206.3391 3273,-234 3273,-234 3273,-234 1964.8183,-234 1964.8183,-234"/>
<polygon fill="#000000" stroke="#000000" points="1964.8183,-230.5001 1954.8183,-234 1964.8182,-237.5001 1964.8183,-230.5001"/>
</g>
<!-- FormAppointmentAddNoteComponent -->
<g id="node7" class="node">
<title>FormAppointmentAddNoteComponent</title>
<polygon fill="#ffffb3" stroke="#000000" points="3171.3682,-187 2934.6318,-187 2934.6318,-151 3171.3682,-151 3171.3682,-187"/>
<text text-anchor="middle" x="3053" y="-164.8" font-family="Times,serif" font-size="14.00" fill="#000000">FormAppointmentAddNoteComponent</text>
</g>
<!-- FormAppointmentAddNoteComponent&#45;&gt;AppModule -->
<g id="edge9" class="edge">
<title>FormAppointmentAddNoteComponent&#45;&gt;AppModule</title>
<path fill="none" stroke="#000000" d="M3053,-187.2667C3053,-205.5552 3053,-231 3053,-231 3053,-231 1964.9252,-231 1964.9252,-231"/>
<polygon fill="#000000" stroke="#000000" points="1964.9252,-227.5001 1954.9252,-231 1964.9252,-234.5001 1964.9252,-227.5001"/>
</g>
<!-- FormDeleteAppointmentComponent -->
<g id="node8" class="node">
<title>FormDeleteAppointmentComponent</title>
<polygon fill="#ffffb3" stroke="#000000" points="2917.0814,-187 2694.9186,-187 2694.9186,-151 2917.0814,-151 2917.0814,-187"/>
<text text-anchor="middle" x="2806" y="-164.8" font-family="Times,serif" font-size="14.00" fill="#000000">FormDeleteAppointmentComponent</text>
</g>
<!-- FormDeleteAppointmentComponent&#45;&gt;AppModule -->
<g id="edge10" class="edge">
<title>FormDeleteAppointmentComponent&#45;&gt;AppModule</title>
<path fill="none" stroke="#000000" d="M2806,-187.0225C2806,-204.3734 2806,-228 2806,-228 2806,-228 1964.8735,-228 1964.8735,-228"/>
<polygon fill="#000000" stroke="#000000" points="1964.8735,-224.5001 1954.8735,-228 1964.8735,-231.5001 1964.8735,-224.5001"/>
</g>
<!-- FormDeleteMedicineComponent -->
<g id="node9" class="node">
<title>FormDeleteMedicineComponent</title>
<polygon fill="#ffffb3" stroke="#000000" points="2676.5674,-187 2475.4326,-187 2475.4326,-151 2676.5674,-151 2676.5674,-187"/>
<text text-anchor="middle" x="2576" y="-164.8" font-family="Times,serif" font-size="14.00" fill="#000000">FormDeleteMedicineComponent</text>
</g>
<!-- FormDeleteMedicineComponent&#45;&gt;AppModule -->
<g id="edge11" class="edge">
<title>FormDeleteMedicineComponent&#45;&gt;AppModule</title>
<path fill="none" stroke="#000000" d="M2576,-187.027C2576,-203.3976 2576,-225 2576,-225 2576,-225 1964.7248,-225 1964.7248,-225"/>
<polygon fill="#000000" stroke="#000000" points="1964.7248,-221.5001 1954.7248,-225 1964.7247,-228.5001 1964.7248,-221.5001"/>
</g>
<!-- FormDeletePatientComponent -->
<g id="node10" class="node">
<title>FormDeletePatientComponent</title>
<polygon fill="#ffffb3" stroke="#000000" points="2457.5814,-187 2270.4186,-187 2270.4186,-151 2457.5814,-151 2457.5814,-187"/>
<text text-anchor="middle" x="2364" y="-164.8" font-family="Times,serif" font-size="14.00" fill="#000000">FormDeletePatientComponent</text>
</g>
<!-- FormDeletePatientComponent&#45;&gt;AppModule -->
<g id="edge12" class="edge">
<title>FormDeletePatientComponent&#45;&gt;AppModule</title>
<path fill="none" stroke="#000000" d="M2364,-187.2396C2364,-202.5706 2364,-222 2364,-222 2364,-222 1965.024,-222 1965.024,-222"/>
<polygon fill="#000000" stroke="#000000" points="1965.024,-218.5001 1955.024,-222 1965.024,-225.5001 1965.024,-218.5001"/>
</g>
<!-- FormDeletePrescriptionComponent -->
<g id="node11" class="node">
<title>FormDeletePrescriptionComponent</title>
<polygon fill="#ffffb3" stroke="#000000" points="2252.8473,-187 2037.1527,-187 2037.1527,-151 2252.8473,-151 2252.8473,-187"/>
<text text-anchor="middle" x="2145" y="-164.8" font-family="Times,serif" font-size="14.00" fill="#000000">FormDeletePrescriptionComponent</text>
</g>
<!-- FormDeletePrescriptionComponent&#45;&gt;AppModule -->
<g id="edge13" class="edge">
<title>FormDeletePrescriptionComponent&#45;&gt;AppModule</title>
<path fill="none" stroke="#000000" d="M2145,-187.0511C2145,-201.373 2145,-219 2145,-219 2145,-219 1964.7449,-219 1964.7449,-219"/>
<polygon fill="#000000" stroke="#000000" points="1964.7449,-215.5001 1954.7449,-219 1964.7449,-222.5001 1964.7449,-215.5001"/>
</g>
<!-- FormNewAppointmentComponent -->
<g id="node12" class="node">
<title>FormNewAppointmentComponent</title>
<polygon fill="#ffffb3" stroke="#000000" points="2018.9776,-187 1807.0224,-187 1807.0224,-151 2018.9776,-151 2018.9776,-187"/>
<text text-anchor="middle" x="1913" y="-164.8" font-family="Times,serif" font-size="14.00" fill="#000000">FormNewAppointmentComponent</text>
</g>
<!-- FormNewAppointmentComponent&#45;&gt;AppModule -->
<g id="edge14" class="edge">
<title>FormNewAppointmentComponent&#45;&gt;AppModule</title>
<path fill="none" stroke="#000000" d="M1913,-187.1061C1913,-187.1061 1913,-205.991 1913,-205.991"/>
<polygon fill="#000000" stroke="#000000" points="1909.5001,-205.9909 1913,-215.991 1916.5001,-205.991 1909.5001,-205.9909"/>
</g>
<!-- FormNewPatientComponent -->
<g id="node13" class="node">
<title>FormNewPatientComponent</title>
<polygon fill="#ffffb3" stroke="#000000" points="1789.4776,-187 1612.5224,-187 1612.5224,-151 1789.4776,-151 1789.4776,-187"/>
<text text-anchor="middle" x="1701" y="-164.8" font-family="Times,serif" font-size="14.00" fill="#000000">FormNewPatientComponent</text>
</g>
<!-- FormNewPatientComponent&#45;&gt;AppModule -->
<g id="edge15" class="edge">
<title>FormNewPatientComponent&#45;&gt;AppModule</title>
<path fill="none" stroke="#000000" d="M1701,-187.0511C1701,-201.373 1701,-219 1701,-219 1701,-219 1861.1156,-219 1861.1156,-219"/>
<polygon fill="#000000" stroke="#000000" points="1861.1157,-222.5001 1871.1156,-219 1861.1156,-215.5001 1861.1157,-222.5001"/>
</g>
<!-- FormNewPrescriptionComponent -->
<g id="node14" class="node">
<title>FormNewPrescriptionComponent</title>
<polygon fill="#ffffb3" stroke="#000000" points="1594.7436,-187 1389.2564,-187 1389.2564,-151 1594.7436,-151 1594.7436,-187"/>
<text text-anchor="middle" x="1492" y="-164.8" font-family="Times,serif" font-size="14.00" fill="#000000">FormNewPrescriptionComponent</text>
</g>
<!-- FormNewPrescriptionComponent&#45;&gt;AppModule -->
<g id="edge16" class="edge">
<title>FormNewPrescriptionComponent&#45;&gt;AppModule</title>
<path fill="none" stroke="#000000" d="M1492,-187.2396C1492,-202.5706 1492,-222 1492,-222 1492,-222 1861.0938,-222 1861.0938,-222"/>
<polygon fill="#000000" stroke="#000000" points="1861.0938,-225.5001 1871.0938,-222 1861.0937,-218.5001 1861.0938,-225.5001"/>
</g>
<!-- HomeComponent -->
<g id="node15" class="node">
<title>HomeComponent</title>
<polygon fill="#ffffb3" stroke="#000000" points="1370.5451,-187 1255.4549,-187 1255.4549,-151 1370.5451,-151 1370.5451,-187"/>
<text text-anchor="middle" x="1313" y="-164.8" font-family="Times,serif" font-size="14.00" fill="#000000">HomeComponent</text>
</g>
<!-- HomeComponent&#45;&gt;AppModule -->
<g id="edge17" class="edge">
<title>HomeComponent&#45;&gt;AppModule</title>
<path fill="none" stroke="#000000" d="M1313,-187.027C1313,-203.3976 1313,-225 1313,-225 1313,-225 1861.2855,-225 1861.2855,-225"/>
<polygon fill="#000000" stroke="#000000" points="1861.2856,-228.5001 1871.2855,-225 1861.2855,-221.5001 1861.2856,-228.5001"/>
</g>
<!-- ListComponent -->
<g id="node16" class="node">
<title>ListComponent</title>
<polygon fill="#ffffb3" stroke="#000000" points="1237.6109,-187 1134.3891,-187 1134.3891,-151 1237.6109,-151 1237.6109,-187"/>
<text text-anchor="middle" x="1186" y="-164.8" font-family="Times,serif" font-size="14.00" fill="#000000">ListComponent</text>
</g>
<!-- ListComponent&#45;&gt;AppModule -->
<g id="edge18" class="edge">
<title>ListComponent&#45;&gt;AppModule</title>
<path fill="none" stroke="#000000" d="M1186,-187.0225C1186,-204.3734 1186,-228 1186,-228 1186,-228 1861.3022,-228 1861.3022,-228"/>
<polygon fill="#000000" stroke="#000000" points="1861.3022,-231.5001 1871.3022,-228 1861.3021,-224.5001 1861.3022,-231.5001"/>
</g>
<!-- LoginComponent -->
<g id="node17" class="node">
<title>LoginComponent</title>
<polygon fill="#ffffb3" stroke="#000000" points="1116.2758,-187 1001.7242,-187 1001.7242,-151 1116.2758,-151 1116.2758,-187"/>
<text text-anchor="middle" x="1059" y="-164.8" font-family="Times,serif" font-size="14.00" fill="#000000">LoginComponent</text>
</g>
<!-- LoginComponent&#45;&gt;AppModule -->
<g id="edge19" class="edge">
<title>LoginComponent&#45;&gt;AppModule</title>
<path fill="none" stroke="#000000" d="M1059,-187.2667C1059,-205.5552 1059,-231 1059,-231 1059,-231 1861.2317,-231 1861.2317,-231"/>
<polygon fill="#000000" stroke="#000000" points="1861.2317,-234.5001 1871.2317,-231 1861.2317,-227.5001 1861.2317,-234.5001"/>
</g>
<!-- MedicineComponent -->
<g id="node18" class="node">
<title>MedicineComponent</title>
<polygon fill="#ffffb3" stroke="#000000" points="984.2022,-187 849.7978,-187 849.7978,-151 984.2022,-151 984.2022,-187"/>
<text text-anchor="middle" x="917" y="-164.8" font-family="Times,serif" font-size="14.00" fill="#000000">MedicineComponent</text>
</g>
<!-- MedicineComponent&#45;&gt;AppModule -->
<g id="edge20" class="edge">
<title>MedicineComponent&#45;&gt;AppModule</title>
<path fill="none" stroke="#000000" d="M917,-187.1061C917,-206.3391 917,-234 917,-234 917,-234 1861.1558,-234 1861.1558,-234"/>
<polygon fill="#000000" stroke="#000000" points="1861.1558,-237.5001 1871.1558,-234 1861.1557,-230.5001 1861.1558,-237.5001"/>
</g>
<!-- NavigationComponent -->
<g id="node19" class="node">
<title>NavigationComponent</title>
<polygon fill="#ffffb3" stroke="#000000" points="831.5407,-187 688.4593,-187 688.4593,-151 831.5407,-151 831.5407,-187"/>
<text text-anchor="middle" x="760" y="-164.8" font-family="Times,serif" font-size="14.00" fill="#000000">NavigationComponent</text>
</g>
<!-- NavigationComponent&#45;&gt;AppModule -->
<g id="edge21" class="edge">
<title>NavigationComponent&#45;&gt;AppModule</title>
<path fill="none" stroke="#000000" d="M760,-187.2228C760,-207.3652 760,-237 760,-237 760,-237 1861.283,-237 1861.283,-237"/>
<polygon fill="#000000" stroke="#000000" points="1861.283,-240.5001 1871.283,-237 1861.2829,-233.5001 1861.283,-240.5001"/>
</g>
<!-- PatientComponent -->
<g id="node20" class="node">
<title>PatientComponent</title>
<polygon fill="#ffffb3" stroke="#000000" points="670.2162,-187 549.7838,-187 549.7838,-151 670.2162,-151 670.2162,-187"/>
<text text-anchor="middle" x="610" y="-164.8" font-family="Times,serif" font-size="14.00" fill="#000000">PatientComponent</text>
</g>
<!-- PatientComponent&#45;&gt;AppModule -->
<g id="edge22" class="edge">
<title>PatientComponent&#45;&gt;AppModule</title>
<path fill="none" stroke="#000000" d="M610,-187.2843C610,-208.3211 610,-240 610,-240 610,-240 1861.1226,-240 1861.1226,-240"/>
<polygon fill="#000000" stroke="#000000" points="1861.1227,-243.5001 1871.1226,-240 1861.1226,-236.5001 1861.1227,-243.5001"/>
</g>
<!-- PrescriptionComponent -->
<g id="node21" class="node">
<title>PrescriptionComponent</title>
<polygon fill="#ffffb3" stroke="#000000" points="531.4818,-187 382.5182,-187 382.5182,-151 531.4818,-151 531.4818,-187"/>
<text text-anchor="middle" x="457" y="-164.8" font-family="Times,serif" font-size="14.00" fill="#000000">PrescriptionComponent</text>
</g>
<!-- PrescriptionComponent&#45;&gt;AppModule -->
<g id="edge23" class="edge">
<title>PrescriptionComponent&#45;&gt;AppModule</title>
<path fill="none" stroke="#000000" d="M457,-187.2921C457,-209.2057 457,-243 457,-243 457,-243 1860.995,-243 1860.995,-243"/>
<polygon fill="#000000" stroke="#000000" points="1860.995,-246.5001 1870.995,-243 1860.9949,-239.5001 1860.995,-246.5001"/>
</g>
<!-- AppComponent  -->
<g id="node25" class="node">
<title>AppComponent </title>
<polygon fill="#80b1d3" stroke="#000000" points="1967.439,-317 1858.561,-317 1858.561,-281 1967.439,-281 1967.439,-317"/>
<text text-anchor="middle" x="1913" y="-294.8" font-family="Times,serif" font-size="14.00" fill="#000000">AppComponent </text>
</g>
<!-- AppModule&#45;&gt;AppComponent  -->
<g id="edge24" class="edge">
<title>AppModule&#45;&gt;AppComponent </title>
<path fill="none" stroke="#000000" stroke-dasharray="1,5" d="M1913,-252.1061C1913,-252.1061 1913,-270.991 1913,-270.991"/>
<polygon fill="#000000" stroke="#000000" points="1909.5001,-270.9909 1913,-280.991 1916.5001,-270.991 1909.5001,-270.9909"/>
</g>
<!-- { provide: DateAdapter, useClass: MomentDateAdapter, deps: [MAT_DATE_LOCALE] } -->
<g id="node23" class="node">
<title>{ provide: DateAdapter, useClass: MomentDateAdapter, deps: [MAT_DATE_LOCALE] }</title>
<ellipse fill="#fdb462" stroke="#000000" cx="3782" cy="-104" rx="363.6404" ry="18"/>
<text text-anchor="middle" x="3782" y="-99.8" font-family="Times,serif" font-size="14.00" fill="#000000">{ provide: DateAdapter, useClass: MomentDateAdapter, deps: [MAT_DATE_LOCALE] }</text>
</g>
<!-- { provide: DateAdapter, useClass: MomentDateAdapter, deps: [MAT_DATE_LOCALE] }&#45;&gt;AppComponent -->
<g id="edge2" class="edge">
<title>{ provide: DateAdapter, useClass: MomentDateAdapter, deps: [MAT_DATE_LOCALE] }&#45;&gt;AppComponent</title>
<path fill="none" stroke="#000000" d="M4110.5732,-111.9703C4110.5732,-111.9703 4110.5732,-140.8723 4110.5732,-140.8723"/>
<polygon fill="#000000" stroke="#000000" points="4107.0733,-140.8722 4110.5732,-150.8723 4114.0733,-140.8723 4107.0733,-140.8722"/>
</g>
<!-- { provide: MAT_DATE_FORMATS, useValue: MAT_MOMENT_DATE_FORMATS } -->
<g id="node24" class="node">
<title>{ provide: MAT_DATE_FORMATS, useValue: MAT_MOMENT_DATE_FORMATS }</title>
<ellipse fill="#fdb462" stroke="#000000" cx="3042" cy="-104" rx="358.4712" ry="18"/>
<text text-anchor="middle" x="3042" y="-99.8" font-family="Times,serif" font-size="14.00" fill="#000000">{ provide: MAT_DATE_FORMATS, useValue: MAT_MOMENT_DATE_FORMATS }</text>
</g>
<!-- { provide: MAT_DATE_FORMATS, useValue: MAT_MOMENT_DATE_FORMATS }&#45;&gt;AppComponent -->
<g id="edge3" class="edge">
<title>{ provide: MAT_DATE_FORMATS, useValue: MAT_MOMENT_DATE_FORMATS }&#45;&gt;AppComponent</title>
<path fill="none" stroke="#000000" d="M3387.3986,-108.8693C3387.3986,-118.0488 3387.3986,-137 3387.3986,-137 3387.3986,-137 4075.4268,-137 4075.4268,-137 4075.4268,-137 4075.4268,-140.7566 4075.4268,-140.7566"/>
<polygon fill="#000000" stroke="#000000" points="4071.9269,-140.7566 4075.4268,-150.7566 4078.9269,-140.7566 4071.9269,-140.7566"/>
</g>
<!-- ErrorInterceptor -->
<g id="node26" class="node">
<title>ErrorInterceptor</title>
<ellipse fill="#fdb462" stroke="#000000" cx="285" cy="-169" rx="73.5329" ry="18"/>
<text text-anchor="middle" x="285" y="-164.8" font-family="Times,serif" font-size="14.00" fill="#000000">ErrorInterceptor</text>
</g>
<!-- ErrorInterceptor&#45;&gt;AppModule -->
<g id="edge25" class="edge">
<title>ErrorInterceptor&#45;&gt;AppModule</title>
<path fill="none" stroke="#000000" d="M285,-187.2479C285,-210.0179 285,-246 285,-246 285,-246 1861.1211,-246 1861.1211,-246"/>
<polygon fill="#000000" stroke="#000000" points="1861.1211,-249.5001 1871.1211,-246 1861.121,-242.5001 1861.1211,-249.5001"/>
</g>
<!-- RequestInterceptor -->
<g id="node27" class="node">
<title>RequestInterceptor</title>
<ellipse fill="#fdb462" stroke="#000000" cx="109" cy="-169" rx="84.5073" ry="18"/>
<text text-anchor="middle" x="109" y="-164.8" font-family="Times,serif" font-size="14.00" fill="#000000">RequestInterceptor</text>
</g>
<!-- RequestInterceptor&#45;&gt;AppModule -->
<g id="edge26" class="edge">
<title>RequestInterceptor&#45;&gt;AppModule</title>
<path fill="none" stroke="#000000" d="M109,-187.1532C109,-210.7566 109,-249 109,-249 109,-249 1861.0629,-249 1861.0629,-249"/>
<polygon fill="#000000" stroke="#000000" points="1861.0629,-252.5001 1871.0629,-249 1861.0628,-245.5001 1861.0629,-252.5001"/>
</g>
</g>
</svg>
